<svg width="300" height="300" viewBox="0 0 300 300" fill="none" xmlns="http://www.w3.org/2000/svg">
<rect width="300" height="300" rx="150" fill="url(#paint0_linear)"/>
<path d="M114.6 145.76L101.16 169.76H87.72L74.28 145.76V183.2H57V116H75.24L94.44 151.52L113.64 116H131.88V183.2H114.6V145.76Z" fill="white"/>
<path d="M173.44 116C180.672 116 186.144 117.888 189.856 121.664C193.632 125.376 195.52 130.848 195.52 138.08V161.12C195.52 168.352 193.632 173.856 189.856 177.632C186.144 181.344 180.672 183.2 173.44 183.2H136V116H173.44ZM178.24 138.08C178.24 132.32 175.36 129.44 169.6 129.44H153.28V169.76H169.6C175.36 169.76 178.24 166.88 178.24 161.12V138.08Z" fill="white"/>
<path d="M188.24 116.2H222.28C229 116.2 233.864 117.736 236.872 120.808C239.944 123.816 241.48 128.68 241.48 135.4V144.04C241.48 149.352 240.584 153.48 238.792 156.424C237.064 159.368 234.28 161.32 230.44 162.28L242.44 183.4H223.72L212.68 163.24H199.24V130.787C199.24 124.742 195.611 119.288 190.036 116.952L188.24 116.2ZM224.2 135.4C224.2 131.56 222.28 129.64 218.44 129.64H199.24V149.8H218.44C222.28 149.8 224.2 147.88 224.2 144.04V135.4Z" fill="white"/>
<defs>
<linearGradient id="paint0_linear" x1="0" y1="0" x2="300" y2="300" gradientUnits="userSpaceOnUse">
<stop stop-color="#FF9D6C"/>
<stop offset="1" stop-color="#BB4E75"/>
</linearGradient>
</defs>
</svg>
